<mxfile host="app.diagrams.net" modified="2023-12-11T17:25:27.281Z" agent="Mozilla/5.0 (Windows NT 10.0; Win64; x64) AppleWebKit/537.36 (KHTML, like Gecko) Chrome/119.0.0.0 Safari/537.36" etag="5DXiB0UkN8XfVjOgbPaN" version="22.1.7" type="github">
  <diagram name="Page-1" id="DsbFrssbx2dvVhhEY77j">
    <mxGraphModel dx="2234" dy="790" grid="1" gridSize="10" guides="1" tooltips="1" connect="1" arrows="1" fold="1" page="0" pageScale="1" pageWidth="850" pageHeight="1100" math="0" shadow="0">
      <root>
        <mxCell id="0" />
        <mxCell id="1" parent="0" />
        <mxCell id="5Wq9M_YqisIYOuM1t0nU-1" value="&lt;a href=&quot;https://api-next.commvault.com/docs/api/cv/OpenAPI3/get-file-servers#get-file-servers&quot;&gt;FileServer&lt;/a&gt;" style="swimlane;childLayout=stackLayout;horizontal=1;startSize=50;horizontalStack=0;rounded=1;fontSize=14;fontStyle=0;strokeWidth=2;resizeParent=0;resizeLast=1;shadow=0;dashed=0;align=center;arcSize=4;whiteSpace=wrap;html=1;" parent="1" vertex="1">
          <mxGeometry x="-400" y="330" width="160" height="120" as="geometry">
            <mxRectangle x="70" y="140" width="80" height="50" as="alternateBounds" />
          </mxGeometry>
        </mxCell>
        <mxCell id="5Wq9M_YqisIYOuM1t0nU-2" value="id&lt;span style=&quot;white-space: pre;&quot;&gt;&#x9;&lt;/span&gt;integer" style="align=left;strokeColor=none;fillColor=none;spacingLeft=4;fontSize=12;verticalAlign=top;resizable=0;rotatable=0;part=1;html=1;" parent="5Wq9M_YqisIYOuM1t0nU-1" vertex="1">
          <mxGeometry y="50" width="160" height="70" as="geometry" />
        </mxCell>
        <mxCell id="5Wq9M_YqisIYOuM1t0nU-3" value="&lt;a href=&quot;https://api-next.commvault.com/docs/api/cv/OpenAPI3/get-plan-by-id&quot;&gt;ServerPlan&lt;/a&gt;" style="swimlane;childLayout=stackLayout;horizontal=1;startSize=50;horizontalStack=0;rounded=1;fontSize=14;fontStyle=0;strokeWidth=2;resizeParent=0;resizeLast=1;shadow=0;dashed=0;align=center;arcSize=4;whiteSpace=wrap;html=1;" parent="1" vertex="1">
          <mxGeometry x="-120" y="100" width="160" height="120" as="geometry">
            <mxRectangle x="70" y="140" width="80" height="50" as="alternateBounds" />
          </mxGeometry>
        </mxCell>
        <mxCell id="5Wq9M_YqisIYOuM1t0nU-4" value="id&lt;span style=&quot;white-space: pre;&quot;&gt;&#x9;&lt;/span&gt;integer" style="align=left;strokeColor=none;fillColor=none;spacingLeft=4;fontSize=12;verticalAlign=top;resizable=0;rotatable=0;part=1;html=1;" parent="5Wq9M_YqisIYOuM1t0nU-3" vertex="1">
          <mxGeometry y="50" width="160" height="70" as="geometry" />
        </mxCell>
        <mxCell id="5Wq9M_YqisIYOuM1t0nU-10" value="&lt;a href=&quot;https://api-next.commvault.com/docs/api/cv/OpenAPI3/get-backup-destination-details&quot;&gt;BackupDestination&lt;/a&gt;" style="swimlane;childLayout=stackLayout;horizontal=1;startSize=50;horizontalStack=0;rounded=1;fontSize=14;fontStyle=0;strokeWidth=2;resizeParent=0;resizeLast=1;shadow=0;dashed=0;align=center;arcSize=4;whiteSpace=wrap;html=1;" parent="1" vertex="1">
          <mxGeometry x="150" y="100" width="160" height="120" as="geometry">
            <mxRectangle x="70" y="140" width="80" height="50" as="alternateBounds" />
          </mxGeometry>
        </mxCell>
        <mxCell id="5Wq9M_YqisIYOuM1t0nU-11" value="id&lt;span style=&quot;white-space: pre;&quot;&gt;&#x9;&lt;/span&gt;integer" style="align=left;strokeColor=none;fillColor=none;spacingLeft=4;fontSize=12;verticalAlign=top;resizable=0;rotatable=0;part=1;html=1;" parent="5Wq9M_YqisIYOuM1t0nU-10" vertex="1">
          <mxGeometry y="50" width="160" height="70" as="geometry" />
        </mxCell>
        <mxCell id="5Wq9M_YqisIYOuM1t0nU-12" value="&lt;a href=&quot;https://api-next.commvault.com/docs/api/cv/OpenAPI3/get-hyper-scale-storage-by-id#get-details-of-a-specific-hyperscale-storage&quot;&gt;HSXStorage&lt;/a&gt;" style="swimlane;childLayout=stackLayout;horizontal=1;startSize=50;horizontalStack=0;rounded=1;fontSize=14;fontStyle=0;strokeWidth=2;resizeParent=0;resizeLast=1;shadow=0;dashed=0;align=center;arcSize=4;whiteSpace=wrap;html=1;" parent="1" vertex="1">
          <mxGeometry x="410" y="100" width="160" height="120" as="geometry">
            <mxRectangle x="70" y="140" width="80" height="50" as="alternateBounds" />
          </mxGeometry>
        </mxCell>
        <mxCell id="5Wq9M_YqisIYOuM1t0nU-13" value="id&lt;span style=&quot;white-space: pre;&quot;&gt;&#x9;&lt;/span&gt;integer" style="align=left;strokeColor=none;fillColor=none;spacingLeft=4;fontSize=12;verticalAlign=top;resizable=0;rotatable=0;part=1;html=1;" parent="5Wq9M_YqisIYOuM1t0nU-12" vertex="1">
          <mxGeometry y="50" width="160" height="70" as="geometry" />
        </mxCell>
        <mxCell id="SlC107RUCFVOXHT2UsFt-3" style="edgeStyle=orthogonalEdgeStyle;rounded=0;orthogonalLoop=1;jettySize=auto;html=1;exitX=0.75;exitY=0;exitDx=0;exitDy=0;" edge="1" parent="1" source="SlC107RUCFVOXHT2UsFt-1">
          <mxGeometry relative="1" as="geometry">
            <mxPoint x="240" y="329.9999999999998" as="targetPoint" />
          </mxGeometry>
        </mxCell>
        <mxCell id="SlC107RUCFVOXHT2UsFt-1" value="&lt;a href=&quot;https://api-next.commvault.com/docs/api/cv/OpenAPI3/get-user-group-details&quot;&gt;UserGroup&lt;/a&gt;" style="swimlane;childLayout=stackLayout;horizontal=1;startSize=50;horizontalStack=0;rounded=1;fontSize=14;fontStyle=0;strokeWidth=2;resizeParent=0;resizeLast=1;shadow=0;dashed=0;align=center;arcSize=4;whiteSpace=wrap;html=1;" vertex="1" parent="1">
          <mxGeometry x="140" y="330" width="160" height="120" as="geometry">
            <mxRectangle x="70" y="140" width="80" height="50" as="alternateBounds" />
          </mxGeometry>
        </mxCell>
        <mxCell id="SlC107RUCFVOXHT2UsFt-2" value="id&lt;span style=&quot;white-space: pre;&quot;&gt;&#x9;&lt;/span&gt;integer" style="align=left;strokeColor=none;fillColor=none;spacingLeft=4;fontSize=12;verticalAlign=top;resizable=0;rotatable=0;part=1;html=1;" vertex="1" parent="SlC107RUCFVOXHT2UsFt-1">
          <mxGeometry y="50" width="160" height="70" as="geometry" />
        </mxCell>
        <mxCell id="SlC107RUCFVOXHT2UsFt-4" value="&lt;a href=&quot;https://api-next.commvault.com/docs/api/cv/OpenAPI3/get-role-details&quot;&gt;Role&lt;/a&gt;" style="swimlane;childLayout=stackLayout;horizontal=1;startSize=50;horizontalStack=0;rounded=1;fontSize=14;fontStyle=0;strokeWidth=2;resizeParent=0;resizeLast=1;shadow=0;dashed=0;align=center;arcSize=4;whiteSpace=wrap;html=1;" vertex="1" parent="1">
          <mxGeometry x="350" y="540" width="160" height="120" as="geometry">
            <mxRectangle x="70" y="140" width="80" height="50" as="alternateBounds" />
          </mxGeometry>
        </mxCell>
        <mxCell id="SlC107RUCFVOXHT2UsFt-5" value="id&lt;span style=&quot;white-space: pre;&quot;&gt;&#x9;&lt;/span&gt;integer" style="align=left;strokeColor=none;fillColor=none;spacingLeft=4;fontSize=12;verticalAlign=top;resizable=0;rotatable=0;part=1;html=1;" vertex="1" parent="SlC107RUCFVOXHT2UsFt-4">
          <mxGeometry y="50" width="160" height="70" as="geometry" />
        </mxCell>
        <mxCell id="SlC107RUCFVOXHT2UsFt-6" value="&lt;a href=&quot;https://api-next.commvault.com/docs/api/cv/OpenAPI3/get-user-details&quot;&gt;User&lt;/a&gt;" style="swimlane;childLayout=stackLayout;horizontal=1;startSize=50;horizontalStack=0;rounded=1;fontSize=14;fontStyle=0;strokeWidth=2;resizeParent=0;resizeLast=1;shadow=0;dashed=0;align=center;arcSize=4;whiteSpace=wrap;html=1;" vertex="1" parent="1">
          <mxGeometry x="540" y="330" width="160" height="120" as="geometry">
            <mxRectangle x="70" y="140" width="80" height="50" as="alternateBounds" />
          </mxGeometry>
        </mxCell>
        <mxCell id="SlC107RUCFVOXHT2UsFt-7" value="id&lt;span style=&quot;white-space: pre;&quot;&gt;&#x9;&lt;/span&gt;integer" style="align=left;strokeColor=none;fillColor=none;spacingLeft=4;fontSize=12;verticalAlign=top;resizable=0;rotatable=0;part=1;html=1;" vertex="1" parent="SlC107RUCFVOXHT2UsFt-6">
          <mxGeometry y="50" width="160" height="70" as="geometry" />
        </mxCell>
        <mxCell id="SlC107RUCFVOXHT2UsFt-8" value="&lt;a href=&quot;https://api-next.commvault.com/docs/api/cv/JobOperations/get-job-summary-of-a-job#get-job-summary-of-a-job&quot;&gt;Job&lt;/a&gt;" style="swimlane;childLayout=stackLayout;horizontal=1;startSize=50;horizontalStack=0;rounded=1;fontSize=14;fontStyle=0;strokeWidth=2;resizeParent=0;resizeLast=1;shadow=0;dashed=0;align=center;arcSize=4;whiteSpace=wrap;html=1;" vertex="1" parent="1">
          <mxGeometry x="-400" y="540" width="160" height="120" as="geometry">
            <mxRectangle x="70" y="140" width="80" height="50" as="alternateBounds" />
          </mxGeometry>
        </mxCell>
        <mxCell id="SlC107RUCFVOXHT2UsFt-9" value="id&lt;span style=&quot;white-space: pre;&quot;&gt;&#x9;&lt;/span&gt;integer" style="align=left;strokeColor=none;fillColor=none;spacingLeft=4;fontSize=12;verticalAlign=top;resizable=0;rotatable=0;part=1;html=1;" vertex="1" parent="SlC107RUCFVOXHT2UsFt-8">
          <mxGeometry y="50" width="160" height="70" as="geometry" />
        </mxCell>
        <mxCell id="SlC107RUCFVOXHT2UsFt-16" value="" style="edgeStyle=entityRelationEdgeStyle;fontSize=12;html=1;endArrow=ERmandOne;startArrow=ERmandOne;rounded=0;exitX=1;exitY=0.333;exitDx=0;exitDy=0;exitPerimeter=0;entryX=0;entryY=0;entryDx=0;entryDy=0;" edge="1" parent="1" source="5Wq9M_YqisIYOuM1t0nU-1" target="5Wq9M_YqisIYOuM1t0nU-4">
          <mxGeometry width="100" height="100" relative="1" as="geometry">
            <mxPoint x="-220" y="310" as="sourcePoint" />
            <mxPoint x="-120" y="210" as="targetPoint" />
          </mxGeometry>
        </mxCell>
        <mxCell id="SlC107RUCFVOXHT2UsFt-17" value="" style="edgeStyle=entityRelationEdgeStyle;fontSize=12;html=1;endArrow=ERzeroToMany;startArrow=ERmandOne;rounded=0;exitX=1;exitY=0;exitDx=0;exitDy=0;entryX=0;entryY=0;entryDx=0;entryDy=0;" edge="1" parent="1" source="5Wq9M_YqisIYOuM1t0nU-4" target="5Wq9M_YqisIYOuM1t0nU-11">
          <mxGeometry width="100" height="100" relative="1" as="geometry">
            <mxPoint x="50" y="230" as="sourcePoint" />
            <mxPoint x="150" y="130" as="targetPoint" />
          </mxGeometry>
        </mxCell>
        <mxCell id="SlC107RUCFVOXHT2UsFt-18" value="" style="edgeStyle=entityRelationEdgeStyle;fontSize=12;html=1;endArrow=ERmandOne;startArrow=ERmandOne;rounded=0;entryX=0;entryY=0;entryDx=0;entryDy=0;" edge="1" parent="1">
          <mxGeometry width="100" height="100" relative="1" as="geometry">
            <mxPoint x="310" y="150" as="sourcePoint" />
            <mxPoint x="410" y="150" as="targetPoint" />
          </mxGeometry>
        </mxCell>
        <mxCell id="SlC107RUCFVOXHT2UsFt-20" value="" style="edgeStyle=entityRelationEdgeStyle;fontSize=12;html=1;endArrow=ERzeroToMany;endFill=1;startArrow=ERzeroToMany;rounded=0;exitX=1;exitY=0.25;exitDx=0;exitDy=0;entryX=0;entryY=0.25;entryDx=0;entryDy=0;" edge="1" parent="1" source="5Wq9M_YqisIYOuM1t0nU-2" target="SlC107RUCFVOXHT2UsFt-2">
          <mxGeometry width="100" height="100" relative="1" as="geometry">
            <mxPoint x="-110" y="450" as="sourcePoint" />
            <mxPoint x="-10" y="350" as="targetPoint" />
          </mxGeometry>
        </mxCell>
        <mxCell id="SlC107RUCFVOXHT2UsFt-21" value="" style="edgeStyle=entityRelationEdgeStyle;fontSize=12;html=1;endArrow=ERzeroToMany;endFill=1;startArrow=ERzeroToMany;rounded=0;exitX=0.5;exitY=1;exitDx=0;exitDy=0;entryX=0;entryY=0.117;entryDx=0;entryDy=0;entryPerimeter=0;" edge="1" parent="1" source="5Wq9M_YqisIYOuM1t0nU-11" target="SlC107RUCFVOXHT2UsFt-1">
          <mxGeometry width="100" height="100" relative="1" as="geometry">
            <mxPoint x="-230" y="408" as="sourcePoint" />
            <mxPoint x="130" y="344" as="targetPoint" />
            <Array as="points">
              <mxPoint x="220" y="270" />
            </Array>
          </mxGeometry>
        </mxCell>
        <mxCell id="SlC107RUCFVOXHT2UsFt-22" value="" style="edgeStyle=entityRelationEdgeStyle;fontSize=12;html=1;endArrow=ERzeroToMany;endFill=1;startArrow=ERzeroToMany;rounded=0;exitX=1;exitY=1;exitDx=0;exitDy=0;entryX=0;entryY=0.117;entryDx=0;entryDy=0;entryPerimeter=0;" edge="1" parent="1">
          <mxGeometry width="100" height="100" relative="1" as="geometry">
            <mxPoint x="50" y="230" as="sourcePoint" />
            <mxPoint x="150" y="354" as="targetPoint" />
          </mxGeometry>
        </mxCell>
      </root>
    </mxGraphModel>
  </diagram>
</mxfile>
